<svg xmlns="http://www.w3.org/2000/svg" xmlns:xlink="http://www.w3.org/1999/xlink" width="1280" zoomAndPan="magnify" viewBox="0 0 960 540.000001" height="720" preserveAspectRatio="xMidYMid meet" version="1.0"><defs><clipPath id="c8859ff1ec"><path d="M 210.5 176 L 397 176 L 397 363 L 210.5 363 Z M 210.5 176 " clip-rule="nonzero"/></clipPath><clipPath id="6206c45b20"><path d="M 563 176 L 749.5 176 L 749.5 363 L 563 363 Z M 563 176 " clip-rule="nonzero"/></clipPath><clipPath id="a2c0fbf83f"><path d="M 136.753906 374 L 265 374 L 265 536 L 136.753906 536 Z M 136.753906 374 " clip-rule="nonzero"/></clipPath></defs><path fill="#56616f" d="M 572.929688 92.929688 C 572.929688 144.261719 531.328125 185.863281 480 185.863281 C 428.671875 185.863281 387.070312 144.261719 387.070312 92.929688 C 387.070312 41.601562 428.671875 0 480 0 C 531.328125 0 572.929688 41.601562 572.929688 92.929688 " fill-opacity="1" fill-rule="nonzero"/><g clip-path="url(#c8859ff1ec)"><path fill="#56616f" d="M 303.429688 176.570312 C 354.761719 176.570312 396.363281 218.171875 396.363281 269.5 C 396.363281 320.832031 354.761719 362.433594 303.429688 362.433594 C 252.101562 362.433594 210.5 320.832031 210.5 269.5 C 210.5 218.171875 252.101562 176.570312 303.429688 176.570312 " fill-opacity="1" fill-rule="nonzero"/></g><path fill="#56616f" d="M 387.070312 446.070312 C 387.070312 394.742188 428.671875 353.140625 480 353.140625 C 531.328125 353.140625 572.929688 394.742188 572.929688 446.070312 C 572.929688 497.402344 531.328125 539 480 539 C 428.671875 539 387.070312 497.402344 387.070312 446.070312 " fill-opacity="1" fill-rule="nonzero"/><g clip-path="url(#6206c45b20)"><path fill="#56616f" d="M 656.570312 362.433594 C 605.238281 362.433594 563.636719 320.832031 563.636719 269.5 C 563.636719 218.171875 605.238281 176.570312 656.570312 176.570312 C 707.898438 176.570312 749.5 218.171875 749.5 269.5 C 749.5 320.832031 707.898438 362.433594 656.570312 362.433594 " fill-opacity="1" fill-rule="nonzero"/></g><path fill="#f2507f" d="M 656.570312 306.671875 C 636.058594 306.671875 619.398438 290.011719 619.398438 269.5 C 619.398438 248.992188 636.058594 232.328125 656.570312 232.328125 C 677.078125 232.328125 693.742188 248.992188 693.742188 269.5 C 693.742188 290.011719 677.078125 306.671875 656.570312 306.671875 Z M 656.570312 213.742188 C 625.824219 213.742188 600.8125 238.753906 600.8125 269.5 C 600.8125 300.25 625.824219 325.257812 656.570312 325.257812 C 687.316406 325.257812 712.328125 300.25 712.328125 269.5 C 712.328125 238.753906 687.316406 213.742188 656.570312 213.742188 " fill-opacity="1" fill-rule="nonzero"/><path fill="#e77cc4" d="M 340.601562 297.378906 C 340.601562 302.5 336.429688 306.671875 331.308594 306.671875 L 275.550781 306.671875 C 270.433594 306.671875 266.257812 302.5 266.257812 297.378906 L 266.257812 241.621094 C 266.257812 236.503906 270.433594 232.328125 275.550781 232.328125 L 331.308594 232.328125 C 336.429688 232.328125 340.601562 236.503906 340.601562 241.621094 Z M 331.308594 213.742188 L 275.550781 213.742188 C 260.160156 213.742188 247.671875 226.230469 247.671875 241.621094 L 247.671875 297.378906 C 247.671875 312.773438 260.160156 325.257812 275.550781 325.257812 L 331.308594 325.257812 C 346.703125 325.257812 359.1875 312.773438 359.1875 297.378906 L 359.1875 241.621094 C 359.1875 226.230469 346.703125 213.742188 331.308594 213.742188 " fill-opacity="1" fill-rule="nonzero"/><path fill="#a0da72" d="M 442.863281 120.8125 L 479.601562 55.613281 L 517.027344 120.8125 Z M 495.683594 46.320312 C 492.378906 40.585938 486.535156 37.171875 480 37.171875 C 473.464844 37.171875 467.621094 40.585938 464.316406 46.320312 L 426.78125 111.480469 C 423.40625 117.253906 423.40625 124.441406 426.746094 130.25 C 430.050781 135.984375 435.929688 139.398438 442.464844 139.398438 L 517.535156 139.398438 C 524.070312 139.398438 529.949219 135.984375 533.253906 130.25 C 536.59375 124.441406 536.59375 117.253906 533.21875 111.519531 L 495.683594 46.320312 " fill-opacity="1" fill-rule="nonzero"/><path fill="#74a7de" d="M 523.742188 402.328125 C 520.113281 398.699219 514.230469 398.699219 510.601562 402.328125 L 480 432.929688 L 449.398438 402.328125 C 445.769531 398.699219 439.886719 398.699219 436.257812 402.328125 C 432.625 405.957031 432.625 411.839844 436.257812 415.46875 L 466.859375 446.070312 L 436.257812 476.671875 C 432.625 480.300781 432.625 486.183594 436.257812 489.8125 C 438.070312 491.628906 440.429688 492.535156 442.828125 492.535156 C 445.222656 492.535156 447.582031 491.628906 449.398438 489.8125 L 480 459.210938 L 510.601562 489.8125 C 512.417969 491.628906 514.777344 492.535156 517.171875 492.535156 C 519.570312 492.535156 521.929688 491.628906 523.742188 489.8125 C 527.375 486.183594 527.375 480.300781 523.742188 476.671875 L 493.140625 446.070312 L 523.742188 415.46875 C 527.375 411.839844 527.375 405.957031 523.742188 402.328125 " fill-opacity="1" fill-rule="nonzero"/><path fill="#1d1d1b" d="M 262.457031 459.453125 C 263.109375 454.5 262.320312 449.761719 260.074219 445.710938 C 258.09375 442.148438 255.105469 439.328125 251.414062 437.429688 C 250.539062 434.1875 248.980469 431.230469 246.796875 428.710938 L 262.253906 413.253906 C 269.808594 405.675781 269.808594 393.34375 262.238281 385.769531 C 258.5625 382.105469 253.695312 380.089844 248.527344 380.089844 C 243.675781 380.089844 239.027344 381.886719 235.4375 385.179688 L 226.507812 393.34375 C 226.476562 393.042969 226.425781 392.722656 226.375 392.421875 C 225.835938 389.546875 224.242188 387.046875 221.859375 385.398438 C 220.011719 384.121094 217.863281 383.449219 215.632812 383.449219 C 213.636719 383.449219 211.707031 384.003906 210.027344 384.996094 C 208.566406 380.679688 204.472656 377.570312 199.691406 377.570312 C 194.371094 377.570312 189.921875 381.417969 188.964844 386.472656 C 187.40625 385.601562 185.609375 385.128906 183.746094 385.128906 C 181.246094 385.128906 178.777344 386.003906 176.832031 387.597656 C 174.332031 389.648438 172.972656 392.589844 172.871094 395.597656 C 171.210938 395.191406 169.515625 394.992188 167.785156 394.992188 C 166.191406 394.992188 164.53125 395.160156 162.734375 395.53125 C 156.222656 396.839844 151.742188 399.929688 149.425781 404.703125 C 145.683594 412.347656 149.492188 419.992188 151.777344 424.542969 L 155.886719 432.792969 L 157.246094 447.863281 C 156.859375 450.535156 156.207031 456.398438 156.675781 462.882812 C 154.679688 463.824219 152.867188 465.097656 151.304688 466.679688 L 145.765625 472.207031 C 142.125 475.851562 140.113281 480.707031 140.113281 485.863281 C 140.113281 491.003906 142.109375 495.859375 145.765625 499.523438 L 179.230469 533.039062 C 182.890625 536.667969 187.722656 538.667969 192.859375 538.667969 C 197.996094 538.667969 202.828125 536.667969 206.519531 533.007812 L 212.007812 527.496094 C 214.441406 525.078125 216.136719 522.136719 217.007812 518.945312 C 232.734375 515.484375 252.320312 502.75 260.746094 491.929688 C 270.023438 480.019531 268.144531 470.257812 266.234375 465.535156 C 265.328125 463.269531 264.035156 461.21875 262.457031 459.453125 Z M 262.457031 459.453125 " fill-opacity="0.35" fill-rule="nonzero"/><g clip-path="url(#a2c0fbf83f)"><path fill="#f2f2f2" d="M 259.101562 456.09375 C 259.753906 451.136719 258.964844 446.402344 256.714844 442.351562 C 254.738281 438.789062 251.75 435.96875 248.058594 434.070312 C 247.183594 430.828125 245.625 427.871094 243.441406 425.351562 L 258.898438 409.894531 C 266.449219 402.316406 266.449219 389.984375 258.882812 382.410156 C 255.207031 378.746094 250.339844 376.730469 245.171875 376.730469 C 240.320312 376.730469 235.671875 378.527344 232.078125 381.820312 L 223.152344 389.984375 C 223.117188 389.683594 223.066406 389.363281 223.015625 389.0625 C 222.480469 386.1875 220.886719 383.683594 218.503906 382.039062 C 216.65625 380.761719 214.507812 380.089844 212.277344 380.089844 C 210.28125 380.089844 208.347656 380.644531 206.671875 381.636719 C 205.210938 377.316406 201.117188 374.210938 196.332031 374.210938 C 191.011719 374.210938 186.566406 378.058594 185.609375 383.113281 C 184.046875 382.242188 182.253906 381.769531 180.390625 381.769531 C 177.890625 381.769531 175.421875 382.644531 173.476562 384.238281 C 170.976562 386.289062 169.617188 389.230469 169.515625 392.238281 C 167.851562 391.832031 166.160156 391.632812 164.429688 391.632812 C 162.835938 391.632812 161.175781 391.800781 159.378906 392.167969 C 152.867188 393.480469 148.386719 396.570312 146.070312 401.34375 C 142.328125 408.988281 146.136719 416.628906 148.417969 421.183594 L 152.53125 429.433594 L 153.890625 444.503906 C 153.503906 447.171875 152.851562 453.035156 153.320312 459.523438 C 151.324219 460.460938 149.511719 461.738281 147.949219 463.320312 L 142.410156 468.847656 C 138.769531 472.492188 136.753906 477.347656 136.753906 482.503906 C 136.753906 487.644531 138.753906 492.5 142.410156 496.164062 L 175.875 529.679688 C 179.535156 533.308594 184.367188 535.308594 189.503906 535.308594 C 194.636719 535.308594 199.472656 533.308594 203.164062 529.644531 L 208.652344 524.136719 C 211.085938 521.714844 212.78125 518.777344 213.652344 515.585938 C 229.378906 512.125 248.964844 499.390625 257.386719 488.570312 C 266.667969 476.65625 264.789062 466.898438 262.875 462.175781 C 261.96875 459.910156 260.675781 457.859375 259.101562 456.09375 Z M 259.101562 456.09375 " fill-opacity="1" fill-rule="nonzero"/></g><path fill="#ffc7a3" d="M 246.273438 460.835938 C 251.308594 450.753906 247.113281 443.195312 237.882812 442.355469 C 239.054688 431.792969 230.328125 428.074219 225.292969 428.074219 L 251.171875 402.167969 C 254.492188 398.847656 254.492188 393.464844 251.171875 390.140625 C 247.960938 386.925781 242.792969 386.808594 239.4375 389.875 C 228.597656 399.785156 206.835938 419.675781 206.835938 419.675781 C 198.441406 428.078125 193.40625 429.757812 190.050781 429.757812 C 183.339844 429.757812 182.5 415.476562 174.945312 407.917969 C 169.074219 402.035156 164.8125 402.21875 161.519531 402.875 C 153.128906 404.554688 154.808594 409.597656 158.164062 416.316406 L 163.199219 426.398438 L 164.878906 444.878906 C 164.878906 444.878906 162.132812 461.371094 167.816406 470.734375 L 167.515625 471.035156 C 164.238281 467.753906 158.925781 467.753906 155.648438 471.035156 L 150.121094 476.570312 C 146.84375 479.851562 146.84375 485.167969 150.121094 488.449219 L 183.566406 521.929688 C 186.84375 525.210938 192.15625 525.210938 195.433594 521.929688 L 200.960938 516.398438 C 204.238281 513.117188 204.238281 507.800781 200.960938 504.519531 L 201.070312 504.414062 C 209.953125 510.019531 238.949219 494.457031 248.789062 481.835938 C 257.824219 470.253906 252.148438 461.675781 246.273438 460.835938 Z M 246.273438 460.835938 " fill-opacity="1" fill-rule="nonzero"/><path fill="#70bfff" d="M 199.117188 518.242188 L 195.433594 521.929688 C 192.15625 525.210938 186.847656 525.210938 183.570312 521.929688 L 150.121094 488.445312 C 146.84375 485.164062 146.84375 479.847656 150.121094 476.566406 L 153.804688 472.878906 C 157.082031 469.597656 162.394531 469.597656 165.671875 472.878906 L 199.117188 506.359375 C 202.398438 509.640625 202.398438 514.960938 199.117188 518.242188 Z M 199.117188 518.242188 " fill-opacity="1" fill-rule="nonzero"/><path fill="#ffe8d9" d="M 241.820312 392.9375 C 243.648438 391.328125 246.449219 391.527344 248.074219 393.378906 C 249.703125 395.234375 249.539062 398.039062 247.714844 399.648438 C 245.886719 401.257812 239.992188 394.546875 241.820312 392.9375 Z M 241.820312 392.9375 " fill-opacity="1" fill-rule="nonzero"/><path fill="#40396e" d="M 204.722656 404.449219 C 204.226562 404.449219 203.726562 404.304688 203.292969 404 C 202.148438 403.207031 201.863281 401.640625 202.652344 400.496094 L 210.207031 389.574219 C 210.996094 388.429688 212.570312 388.144531 213.707031 388.9375 C 214.851562 389.730469 215.136719 391.300781 214.347656 392.445312 L 206.792969 403.363281 C 206.304688 404.070312 205.523438 404.449219 204.722656 404.449219 Z M 187.945312 404.449219 C 187.214844 404.449219 186.492188 404.132812 185.992188 403.527344 L 178.441406 394.285156 C 177.5625 393.210938 177.71875 391.621094 178.796875 390.738281 C 179.875 389.859375 181.457031 390.015625 182.339844 391.09375 L 189.890625 400.335938 C 190.769531 401.410156 190.613281 403 189.535156 403.878906 C 189.066406 404.265625 188.503906 404.449219 187.945312 404.449219 Z M 196.332031 401.089844 C 194.945312 401.089844 193.816406 399.964844 193.816406 398.570312 L 193.816406 385.128906 C 193.816406 383.738281 194.945312 382.609375 196.332031 382.609375 C 197.722656 382.609375 198.851562 383.738281 198.851562 385.128906 L 198.851562 398.570312 C 198.851562 399.964844 197.722656 401.089844 196.332031 401.089844 Z M 196.332031 401.089844 " fill-opacity="1" fill-rule="nonzero"/><path fill="#40396e" d="M 193.40625 510.398438 C 193.40625 510.671875 193.382812 510.945312 193.328125 511.214844 C 193.273438 511.488281 193.195312 511.75 193.089844 512.003906 C 192.984375 512.257812 192.855469 512.5 192.699219 512.730469 C 192.546875 512.960938 192.375 513.171875 192.179688 513.367188 C 191.984375 513.5625 191.773438 513.734375 191.542969 513.890625 C 191.3125 514.042969 191.074219 514.171875 190.816406 514.277344 C 190.5625 514.382812 190.300781 514.460938 190.03125 514.515625 C 189.761719 514.570312 189.488281 514.597656 189.210938 514.597656 C 188.9375 514.597656 188.664062 514.570312 188.394531 514.515625 C 188.125 514.460938 187.859375 514.382812 187.605469 514.277344 C 187.351562 514.171875 187.109375 514.042969 186.882812 513.890625 C 186.652344 513.734375 186.441406 513.5625 186.246094 513.367188 C 186.050781 513.171875 185.875 512.960938 185.722656 512.730469 C 185.570312 512.5 185.441406 512.257812 185.335938 512.003906 C 185.230469 511.75 185.152344 511.488281 185.097656 511.214844 C 185.042969 510.945312 185.015625 510.671875 185.015625 510.398438 C 185.015625 510.121094 185.042969 509.847656 185.097656 509.578125 C 185.152344 509.308594 185.230469 509.042969 185.335938 508.789062 C 185.441406 508.535156 185.570312 508.292969 185.722656 508.0625 C 185.875 507.832031 186.050781 507.621094 186.246094 507.425781 C 186.441406 507.230469 186.652344 507.058594 186.882812 506.90625 C 187.109375 506.75 187.351562 506.621094 187.605469 506.515625 C 187.859375 506.410156 188.125 506.332031 188.394531 506.277344 C 188.664062 506.222656 188.9375 506.195312 189.210938 506.195312 C 189.488281 506.195312 189.761719 506.222656 190.03125 506.277344 C 190.300781 506.332031 190.5625 506.410156 190.816406 506.515625 C 191.074219 506.621094 191.3125 506.75 191.542969 506.90625 C 191.773438 507.058594 191.984375 507.230469 192.179688 507.425781 C 192.375 507.621094 192.546875 507.832031 192.699219 508.0625 C 192.855469 508.292969 192.984375 508.535156 193.089844 508.789062 C 193.195312 509.042969 193.273438 509.308594 193.328125 509.578125 C 193.382812 509.847656 193.40625 510.121094 193.40625 510.398438 Z M 193.40625 510.398438 " fill-opacity="1" fill-rule="nonzero"/><path fill="#40396e" d="M 189.5 526.90625 C 186.707031 526.90625 183.914062 525.839844 181.789062 523.710938 L 148.34375 490.230469 C 146.28125 488.167969 145.148438 485.425781 145.148438 482.507812 C 145.148438 479.589844 146.28125 476.851562 148.34375 474.785156 L 153.867188 469.253906 C 156.222656 466.898438 159.554688 465.757812 162.820312 466.125 C 160.484375 457.238281 161.996094 446.855469 162.34375 444.773438 L 160.738281 427.097656 L 155.914062 417.441406 C 153.683594 412.976562 151.828125 408.667969 153.597656 405.046875 C 154.746094 402.695312 157.179688 401.175781 161.03125 400.40625 C 165.144531 399.578125 170.222656 399.617188 176.726562 406.132812 C 180.417969 409.828125 182.558594 414.757812 184.445312 419.113281 C 186.257812 423.289062 187.96875 427.238281 190.054688 427.238281 C 193.816406 427.238281 198.863281 424.09375 205.054688 417.894531 L 237.742188 388.011719 C 242.101562 384.03125 248.785156 384.183594 252.953125 388.359375 C 257.25 392.660156 257.25 399.652344 252.953125 403.953125 L 230.453125 426.476562 C 232.734375 427.269531 235.09375 428.621094 236.964844 430.710938 C 239.242188 433.257812 240.445312 436.507812 240.503906 440.214844 C 244.511719 441.105469 247.617188 443.261719 249.382812 446.433594 C 251.363281 449.996094 251.453125 454.492188 249.679688 459.300781 C 252.058594 460.496094 254.019531 462.617188 255.097656 465.300781 C 256.339844 468.390625 257.433594 474.847656 250.777344 483.386719 C 242.246094 494.324219 219.46875 508.089844 206.082031 508.089844 C 205.945312 508.089844 205.808594 508.085938 205.675781 508.085938 C 206.453125 511.609375 205.476562 515.445312 202.742188 518.179688 L 197.214844 523.710938 C 195.089844 525.839844 192.292969 526.90625 189.5 526.90625 Z M 161.582031 471.09375 C 160.011719 471.09375 158.539062 471.707031 157.429688 472.816406 L 151.902344 478.351562 C 150.792969 479.460938 150.179688 480.9375 150.179688 482.507812 C 150.179688 484.078125 150.792969 485.554688 151.902344 486.667969 L 185.347656 520.148438 C 187.636719 522.4375 191.363281 522.4375 193.65625 520.148438 L 199.179688 514.617188 C 201.46875 512.324219 201.46875 508.59375 199.179688 506.300781 C 198.703125 505.824219 198.4375 505.175781 198.445312 504.5 C 198.449219 503.824219 198.726562 503.179688 199.210938 502.710938 C 200.042969 501.902344 201.433594 501.664062 202.410156 502.285156 C 209.410156 506.695312 236.789062 493.132812 246.808594 480.289062 C 251.910156 473.742188 251.265625 469.269531 250.425781 467.1875 C 249.59375 465.117188 247.824219 463.605469 245.917969 463.332031 C 245.113281 463.21875 244.417969 462.726562 244.042969 462.007812 C 243.667969 461.289062 243.660156 460.4375 244.019531 459.710938 C 246.152344 455.445312 246.492188 451.601562 244.980469 448.890625 C 243.714844 446.609375 241.109375 445.183594 237.652344 444.867188 C 236.980469 444.808594 236.359375 444.476562 235.929688 443.953125 C 235.503906 443.429688 235.304688 442.753906 235.378906 442.082031 C 235.746094 438.789062 235.015625 436.09375 233.210938 434.074219 C 231.066406 431.671875 227.6875 430.597656 225.292969 430.597656 C 224.277344 430.597656 223.359375 429.984375 222.96875 429.042969 C 222.578125 428.101562 222.792969 427.015625 223.515625 426.296875 L 249.394531 400.390625 C 251.722656 398.054688 251.722656 394.257812 249.394531 391.925781 C 247.128906 389.660156 243.5 389.574219 241.136719 391.738281 L 208.535156 421.535156 C 201.242188 428.835938 195.347656 432.273438 190.054688 432.273438 C 184.667969 432.273438 182.316406 426.855469 179.828125 421.117188 C 178.117188 417.179688 176.179688 412.710938 173.167969 409.695312 C 168.113281 404.636719 164.761719 404.800781 162.015625 405.347656 C 159.898438 405.769531 158.515625 406.449219 158.121094 407.261719 C 157.296875 408.941406 159.40625 413.160156 160.417969 415.1875 L 165.453125 425.269531 C 165.589844 425.546875 165.679688 425.855469 165.707031 426.167969 L 167.386719 444.648438 C 167.40625 444.871094 167.394531 445.101562 167.351562 445.324219 C 167.324219 445.480469 164.546875 461.300781 169.664062 469.726562 C 170.324219 470.816406 170.070312 472.226562 169.066406 473.015625 C 168.066406 473.804688 166.636719 473.71875 165.734375 472.816406 C 164.625 471.707031 163.152344 471.09375 161.582031 471.09375 Z M 161.582031 471.09375 " fill-opacity="1" fill-rule="nonzero"/></svg>